<svg width="188" height="256" viewBox="0 0 188 256" fill="none" xmlns="http://www.w3.org/2000/svg">
<g opacity="0.5">
<path d="M98 176H99.4754V177.472H98V176Z" fill="#180E01"/>
<path d="M107.836 176H109.311V177.472H107.836V176Z" fill="#180E01"/>
<path d="M117.672 176H119.148V177.472H117.672V176Z" fill="#180E01"/>
<path d="M127.508 176H128.984V177.472H127.508V176Z" fill="#180E01"/>
<path d="M137.344 176H138.82V177.472H137.344V176Z" fill="#180E01"/>
<path d="M147.18 176H148.656V177.472H147.18V176Z" fill="#180E01"/>
<path d="M157.016 176H158.492V177.472H157.016V176Z" fill="#180E01"/>
<path d="M166.852 176H168.328V177.472H166.852V176Z" fill="#180E01"/>
<path d="M176.689 176H178.164V177.472H176.689V176Z" fill="#180E01"/>
<path d="M186.525 176H188V177.472H186.525V176Z" fill="#180E01"/>
<path d="M98 185.816H99.4754V187.288H98V185.816Z" fill="#180E01"/>
<path d="M107.836 185.816H109.311V187.288H107.836V185.816Z" fill="#180E01"/>
<path d="M117.672 185.816H119.148V187.288H117.672V185.816Z" fill="#180E01"/>
<path d="M127.508 185.816H128.984V187.288H127.508V185.816Z" fill="#180E01"/>
<path d="M137.344 185.816H138.82V187.288H137.344V185.816Z" fill="#180E01"/>
<path d="M147.18 185.816H148.656V187.288H147.18V185.816Z" fill="#180E01"/>
<path d="M157.016 185.816H158.492V187.288H157.016V185.816Z" fill="#180E01"/>
<path d="M166.852 185.816H168.328V187.288H166.852V185.816Z" fill="#180E01"/>
<path d="M176.689 185.816H178.164V187.288H176.689V185.816Z" fill="#180E01"/>
<path d="M186.525 185.816H188V187.288H186.525V185.816Z" fill="#180E01"/>
<path d="M98 195.632H99.4754V197.104H98V195.632Z" fill="#180E01"/>
<path d="M107.836 195.632H109.311V197.104H107.836V195.632Z" fill="#180E01"/>
<path d="M117.672 195.632H119.148V197.104H117.672V195.632Z" fill="#180E01"/>
<path d="M127.508 195.632H128.984V197.104H127.508V195.632Z" fill="#180E01"/>
<path d="M137.344 195.632H138.82V197.104H137.344V195.632Z" fill="#180E01"/>
<path d="M147.18 195.632H148.656V197.104H147.18V195.632Z" fill="#180E01"/>
<path d="M157.016 195.632H158.492V197.104H157.016V195.632Z" fill="#180E01"/>
<path d="M166.852 195.632H168.328V197.104H166.852V195.632Z" fill="#180E01"/>
<path d="M176.689 195.632H178.164V197.104H176.689V195.632Z" fill="#180E01"/>
<path d="M186.525 195.632H188V197.104H186.525V195.632Z" fill="#180E01"/>
<path d="M98 205.448H99.4754V206.92H98V205.448Z" fill="#180E01"/>
<path d="M107.836 205.448H109.311V206.92H107.836V205.448Z" fill="#180E01"/>
<path d="M117.672 205.448H119.148V206.92H117.672V205.448Z" fill="#180E01"/>
<path d="M127.508 205.448H128.984V206.92H127.508V205.448Z" fill="#180E01"/>
<path d="M137.344 205.448H138.82V206.92H137.344V205.448Z" fill="#180E01"/>
<path d="M147.18 205.448H148.656V206.92H147.18V205.448Z" fill="#180E01"/>
<path d="M157.016 205.448H158.492V206.92H157.016V205.448Z" fill="#180E01"/>
<path d="M166.852 205.448H168.328V206.92H166.852V205.448Z" fill="#180E01"/>
<path d="M176.689 205.448H178.164V206.92H176.689V205.448Z" fill="#180E01"/>
<path d="M186.525 205.448H188V206.92H186.525V205.448Z" fill="#180E01"/>
<path d="M98 215.264H99.4754V216.736H98V215.264Z" fill="#180E01"/>
<path d="M107.836 215.264H109.311V216.736H107.836V215.264Z" fill="#180E01"/>
<path d="M117.672 215.264H119.148V216.736H117.672V215.264Z" fill="#180E01"/>
<path d="M127.508 215.264H128.984V216.736H127.508V215.264Z" fill="#180E01"/>
<path d="M137.344 215.264H138.82V216.736H137.344V215.264Z" fill="#180E01"/>
<path d="M147.18 215.264H148.656V216.736H147.18V215.264Z" fill="#180E01"/>
<path d="M157.016 215.264H158.492V216.736H157.016V215.264Z" fill="#180E01"/>
<path d="M166.852 215.264H168.328V216.736H166.852V215.264Z" fill="#180E01"/>
<path d="M176.689 215.264H178.164V216.736H176.689V215.264Z" fill="#180E01"/>
<path d="M186.525 215.264H188V216.736H186.525V215.264Z" fill="#180E01"/>
<path d="M98 225.08H99.4754V226.552H98V225.08Z" fill="#180E01"/>
<path d="M107.836 225.08H109.311V226.552H107.836V225.08Z" fill="#180E01"/>
<path d="M117.672 225.08H119.148V226.552H117.672V225.08Z" fill="#180E01"/>
<path d="M127.508 225.08H128.984V226.552H127.508V225.08Z" fill="#180E01"/>
<path d="M137.344 225.08H138.82V226.552H137.344V225.08Z" fill="#180E01"/>
<path d="M147.18 225.08H148.656V226.552H147.18V225.08Z" fill="#180E01"/>
<path d="M157.016 225.08H158.492V226.552H157.016V225.08Z" fill="#180E01"/>
<path d="M166.852 225.08H168.328V226.552H166.852V225.08Z" fill="#180E01"/>
<path d="M176.689 225.08H178.164V226.552H176.689V225.08Z" fill="#180E01"/>
<path d="M186.525 225.08H188V226.552H186.525V225.08Z" fill="#180E01"/>
<path d="M98 234.896H99.4754V236.368H98V234.896Z" fill="#180E01"/>
<path d="M107.836 234.896H109.311V236.368H107.836V234.896Z" fill="#180E01"/>
<path d="M117.672 234.896H119.148V236.368H117.672V234.896Z" fill="#180E01"/>
<path d="M127.508 234.896H128.984V236.368H127.508V234.896Z" fill="#180E01"/>
<path d="M137.344 234.896H138.82V236.368H137.344V234.896Z" fill="#180E01"/>
<path d="M147.18 234.896H148.656V236.368H147.18V234.896Z" fill="#180E01"/>
<path d="M157.016 234.896H158.492V236.368H157.016V234.896Z" fill="#180E01"/>
<path d="M166.852 234.896H168.328V236.368H166.852V234.896Z" fill="#180E01"/>
<path d="M176.689 234.896H178.164V236.368H176.689V234.896Z" fill="#180E01"/>
<path d="M186.525 234.896H188V236.368H186.525V234.896Z" fill="#180E01"/>
<path d="M98 244.712H99.4754V246.184H98V244.712Z" fill="#180E01"/>
<path d="M107.836 244.712H109.311V246.184H107.836V244.712Z" fill="#180E01"/>
<path d="M117.672 244.712H119.148V246.184H117.672V244.712Z" fill="#180E01"/>
<path d="M127.508 244.712H128.984V246.184H127.508V244.712Z" fill="#180E01"/>
<path d="M137.344 244.712H138.82V246.184H137.344V244.712Z" fill="#180E01"/>
<path d="M147.18 244.712H148.656V246.184H147.18V244.712Z" fill="#180E01"/>
<path d="M157.016 244.712H158.492V246.184H157.016V244.712Z" fill="#180E01"/>
<path d="M166.852 244.712H168.328V246.184H166.852V244.712Z" fill="#180E01"/>
<path d="M176.689 244.712H178.164V246.184H176.689V244.712Z" fill="#180E01"/>
<path d="M186.525 244.712H188V246.184H186.525V244.712Z" fill="#180E01"/>
<path d="M98 254.528H99.4754V256H98V254.528Z" fill="#180E01"/>
<path d="M107.836 254.528H109.311V256H107.836V254.528Z" fill="#180E01"/>
<path d="M117.672 254.528H119.148V256H117.672V254.528Z" fill="#180E01"/>
<path d="M127.508 254.528H128.984V256H127.508V254.528Z" fill="#180E01"/>
<path d="M137.344 254.528H138.82V256H137.344V254.528Z" fill="#180E01"/>
<path d="M147.18 254.528H148.656V256H147.18V254.528Z" fill="#180E01"/>
<path d="M157.016 254.528H158.492V256H157.016V254.528Z" fill="#180E01"/>
<path d="M166.852 254.528H168.328V256H166.852V254.528Z" fill="#180E01"/>
<path d="M176.689 254.528H178.164V256H176.689V254.528Z" fill="#180E01"/>
<path d="M186.525 254.528H188V256H186.525V254.528Z" fill="#180E01"/>
<path d="M98 88H99.4754V89.4724H98V88Z" fill="#180E01"/>
<path d="M107.836 88H109.311V89.4724H107.836V88Z" fill="#180E01"/>
<path d="M117.672 88H119.148V89.4724H117.672V88Z" fill="#180E01"/>
<path d="M127.508 88H128.984V89.4724H127.508V88Z" fill="#180E01"/>
<path d="M137.344 88H138.82V89.4724H137.344V88Z" fill="#180E01"/>
<path d="M147.18 88H148.656V89.4724H147.18V88Z" fill="#180E01"/>
<path d="M157.016 88H158.492V89.4724H157.016V88Z" fill="#180E01"/>
<path d="M166.852 88H168.328V89.4724H166.852V88Z" fill="#180E01"/>
<path d="M176.689 88H178.164V89.4724H176.689V88Z" fill="#180E01"/>
<path d="M186.525 88H188V89.4724H186.525V88Z" fill="#180E01"/>
<path d="M98 97.8159H99.4754V99.2883H98V97.8159Z" fill="#180E01"/>
<path d="M107.836 97.816H109.311V99.2884H107.836V97.816Z" fill="#180E01"/>
<path d="M117.672 97.816H119.148V99.2884H117.672V97.816Z" fill="#180E01"/>
<path d="M127.508 97.816H128.984V99.2884H127.508V97.816Z" fill="#180E01"/>
<path d="M137.344 97.816H138.82V99.2884H137.344V97.816Z" fill="#180E01"/>
<path d="M147.18 97.816H148.656V99.2884H147.18V97.816Z" fill="#180E01"/>
<path d="M157.016 97.816H158.492V99.2884H157.016V97.816Z" fill="#180E01"/>
<path d="M166.852 97.816H168.328V99.2884H166.852V97.816Z" fill="#180E01"/>
<path d="M176.689 97.816H178.164V99.2884H176.689V97.816Z" fill="#180E01"/>
<path d="M186.525 97.816H188V99.2884H186.525V97.816Z" fill="#180E01"/>
<path d="M98 107.632H99.4754V109.104H98V107.632Z" fill="#180E01"/>
<path d="M107.836 107.632H109.311V109.104H107.836V107.632Z" fill="#180E01"/>
<path d="M117.672 107.632H119.148V109.104H117.672V107.632Z" fill="#180E01"/>
<path d="M127.508 107.632H128.984V109.104H127.508V107.632Z" fill="#180E01"/>
<path d="M137.344 107.632H138.82V109.104H137.344V107.632Z" fill="#180E01"/>
<path d="M147.18 107.632H148.656V109.104H147.18V107.632Z" fill="#180E01"/>
<path d="M157.016 107.632H158.492V109.104H157.016V107.632Z" fill="#180E01"/>
<path d="M166.852 107.632H168.328V109.104H166.852V107.632Z" fill="#180E01"/>
<path d="M176.689 107.632H178.164V109.104H176.689V107.632Z" fill="#180E01"/>
<path d="M186.525 107.632H188V109.104H186.525V107.632Z" fill="#180E01"/>
<path d="M98 117.448H99.4754V118.92H98V117.448Z" fill="#180E01"/>
<path d="M107.836 117.448H109.311V118.92H107.836V117.448Z" fill="#180E01"/>
<path d="M117.672 117.448H119.148V118.92H117.672V117.448Z" fill="#180E01"/>
<path d="M127.508 117.448H128.984V118.92H127.508V117.448Z" fill="#180E01"/>
<path d="M137.344 117.448H138.82V118.92H137.344V117.448Z" fill="#180E01"/>
<path d="M147.18 117.448H148.656V118.92H147.18V117.448Z" fill="#180E01"/>
<path d="M157.016 117.448H158.492V118.92H157.016V117.448Z" fill="#180E01"/>
<path d="M166.852 117.448H168.328V118.92H166.852V117.448Z" fill="#180E01"/>
<path d="M176.689 117.448H178.164V118.92H176.689V117.448Z" fill="#180E01"/>
<path d="M186.525 117.448H188V118.92H186.525V117.448Z" fill="#180E01"/>
<path d="M98 127.264H99.4754V128.736H98V127.264Z" fill="#180E01"/>
<path d="M107.836 127.264H109.311V128.736H107.836V127.264Z" fill="#180E01"/>
<path d="M117.672 127.264H119.148V128.736H117.672V127.264Z" fill="#180E01"/>
<path d="M127.508 127.264H128.984V128.736H127.508V127.264Z" fill="#180E01"/>
<path d="M137.344 127.264H138.82V128.736H137.344V127.264Z" fill="#180E01"/>
<path d="M147.18 127.264H148.656V128.736H147.18V127.264Z" fill="#180E01"/>
<path d="M157.016 127.264H158.492V128.736H157.016V127.264Z" fill="#180E01"/>
<path d="M166.852 127.264H168.328V128.736H166.852V127.264Z" fill="#180E01"/>
<path d="M176.689 127.264H178.164V128.736H176.689V127.264Z" fill="#180E01"/>
<path d="M186.525 127.264H188V128.736H186.525V127.264Z" fill="#180E01"/>
<path d="M98 137.08H99.4754V138.552H98V137.08Z" fill="#180E01"/>
<path d="M107.836 137.08H109.311V138.552H107.836V137.08Z" fill="#180E01"/>
<path d="M117.672 137.08H119.148V138.552H117.672V137.08Z" fill="#180E01"/>
<path d="M127.508 137.08H128.984V138.552H127.508V137.08Z" fill="#180E01"/>
<path d="M137.344 137.08H138.82V138.552H137.344V137.08Z" fill="#180E01"/>
<path d="M147.18 137.08H148.656V138.552H147.18V137.08Z" fill="#180E01"/>
<path d="M157.016 137.08H158.492V138.552H157.016V137.08Z" fill="#180E01"/>
<path d="M166.852 137.08H168.328V138.552H166.852V137.08Z" fill="#180E01"/>
<path d="M176.689 137.08H178.164V138.552H176.689V137.08Z" fill="#180E01"/>
<path d="M186.525 137.08H188V138.552H186.525V137.08Z" fill="#180E01"/>
<path d="M98 146.896H99.4754V148.368H98V146.896Z" fill="#180E01"/>
<path d="M107.836 146.896H109.311V148.368H107.836V146.896Z" fill="#180E01"/>
<path d="M117.672 146.896H119.148V148.368H117.672V146.896Z" fill="#180E01"/>
<path d="M127.508 146.896H128.984V148.368H127.508V146.896Z" fill="#180E01"/>
<path d="M137.344 146.896H138.82V148.368H137.344V146.896Z" fill="#180E01"/>
<path d="M147.18 146.896H148.656V148.368H147.18V146.896Z" fill="#180E01"/>
<path d="M157.016 146.896H158.492V148.368H157.016V146.896Z" fill="#180E01"/>
<path d="M166.852 146.896H168.328V148.368H166.852V146.896Z" fill="#180E01"/>
<path d="M176.689 146.896H178.164V148.368H176.689V146.896Z" fill="#180E01"/>
<path d="M186.525 146.896H188V148.368H186.525V146.896Z" fill="#180E01"/>
<path d="M98 156.712H99.4754V158.184H98V156.712Z" fill="#180E01"/>
<path d="M107.836 156.712H109.311V158.184H107.836V156.712Z" fill="#180E01"/>
<path d="M117.672 156.712H119.148V158.184H117.672V156.712Z" fill="#180E01"/>
<path d="M127.508 156.712H128.984V158.184H127.508V156.712Z" fill="#180E01"/>
<path d="M137.344 156.712H138.82V158.184H137.344V156.712Z" fill="#180E01"/>
<path d="M147.18 156.712H148.656V158.184H147.18V156.712Z" fill="#180E01"/>
<path d="M157.016 156.712H158.492V158.184H157.016V156.712Z" fill="#180E01"/>
<path d="M166.852 156.712H168.328V158.184H166.852V156.712Z" fill="#180E01"/>
<path d="M176.689 156.712H178.164V158.184H176.689V156.712Z" fill="#180E01"/>
<path d="M186.525 156.712H188V158.184H186.525V156.712Z" fill="#180E01"/>
<path d="M98 166.528H99.4754V168H98V166.528Z" fill="#180E01"/>
<path d="M107.836 166.528H109.311V168H107.836V166.528Z" fill="#180E01"/>
<path d="M117.672 166.528H119.148V168H117.672V166.528Z" fill="#180E01"/>
<path d="M127.508 166.528H128.984V168H127.508V166.528Z" fill="#180E01"/>
<path d="M137.344 166.528H138.82V168H137.344V166.528Z" fill="#180E01"/>
<path d="M147.18 166.528H148.656V168H147.18V166.528Z" fill="#180E01"/>
<path d="M157.016 166.528H158.492V168H157.016V166.528Z" fill="#180E01"/>
<path d="M166.852 166.528H168.328V168H166.852V166.528Z" fill="#180E01"/>
<path d="M176.689 166.528H178.164V168H176.689V166.528Z" fill="#180E01"/>
<path d="M186.525 166.528H188V168H186.525V166.528Z" fill="#180E01"/>
<path d="M0 88H1.47541V89.4724H0V88Z" fill="#180E01"/>
<path d="M9.83607 88H11.3115V89.4724H9.83607V88Z" fill="#180E01"/>
<path d="M19.6721 88H21.1475V89.4724H19.6721V88Z" fill="#180E01"/>
<path d="M29.5082 88H30.9836V89.4724H29.5082V88Z" fill="#180E01"/>
<path d="M39.3443 88H40.8197V89.4724H39.3443V88Z" fill="#180E01"/>
<path d="M49.1803 88H50.6557V89.4724H49.1803V88Z" fill="#180E01"/>
<path d="M59.0164 88H60.4918V89.4724H59.0164V88Z" fill="#180E01"/>
<path d="M68.8525 88H70.3279V89.4724H68.8525V88Z" fill="#180E01"/>
<path d="M78.6885 88H80.1639V89.4724H78.6885V88Z" fill="#180E01"/>
<path d="M88.5246 88H90V89.4724H88.5246V88Z" fill="#180E01"/>
<path d="M0 97.8159H1.47541V99.2883H0V97.8159Z" fill="#180E01"/>
<path d="M9.83607 97.816H11.3115V99.2884H9.83607V97.816Z" fill="#180E01"/>
<path d="M19.6721 97.816H21.1475V99.2884H19.6721V97.816Z" fill="#180E01"/>
<path d="M29.5082 97.816H30.9836V99.2884H29.5082V97.816Z" fill="#180E01"/>
<path d="M39.3443 97.816H40.8197V99.2884H39.3443V97.816Z" fill="#180E01"/>
<path d="M49.1803 97.816H50.6557V99.2884H49.1803V97.816Z" fill="#180E01"/>
<path d="M59.0164 97.816H60.4918V99.2884H59.0164V97.816Z" fill="#180E01"/>
<path d="M68.8525 97.816H70.3279V99.2884H68.8525V97.816Z" fill="#180E01"/>
<path d="M78.6885 97.816H80.1639V99.2884H78.6885V97.816Z" fill="#180E01"/>
<path d="M88.5246 97.816H90V99.2884H88.5246V97.816Z" fill="#180E01"/>
<path d="M0 107.632H1.47541V109.104H0V107.632Z" fill="#180E01"/>
<path d="M9.83607 107.632H11.3115V109.104H9.83607V107.632Z" fill="#180E01"/>
<path d="M19.6721 107.632H21.1475V109.104H19.6721V107.632Z" fill="#180E01"/>
<path d="M29.5082 107.632H30.9836V109.104H29.5082V107.632Z" fill="#180E01"/>
<path d="M39.3443 107.632H40.8197V109.104H39.3443V107.632Z" fill="#180E01"/>
<path d="M49.1803 107.632H50.6557V109.104H49.1803V107.632Z" fill="#180E01"/>
<path d="M59.0164 107.632H60.4918V109.104H59.0164V107.632Z" fill="#180E01"/>
<path d="M68.8525 107.632H70.3279V109.104H68.8525V107.632Z" fill="#180E01"/>
<path d="M78.6885 107.632H80.1639V109.104H78.6885V107.632Z" fill="#180E01"/>
<path d="M88.5246 107.632H90V109.104H88.5246V107.632Z" fill="#180E01"/>
<path d="M0 117.448H1.47541V118.92H0V117.448Z" fill="#180E01"/>
<path d="M9.83607 117.448H11.3115V118.92H9.83607V117.448Z" fill="#180E01"/>
<path d="M19.6721 117.448H21.1475V118.92H19.6721V117.448Z" fill="#180E01"/>
<path d="M29.5082 117.448H30.9836V118.92H29.5082V117.448Z" fill="#180E01"/>
<path d="M39.3443 117.448H40.8197V118.92H39.3443V117.448Z" fill="#180E01"/>
<path d="M49.1803 117.448H50.6557V118.92H49.1803V117.448Z" fill="#180E01"/>
<path d="M59.0164 117.448H60.4918V118.92H59.0164V117.448Z" fill="#180E01"/>
<path d="M68.8525 117.448H70.3279V118.92H68.8525V117.448Z" fill="#180E01"/>
<path d="M78.6885 117.448H80.1639V118.92H78.6885V117.448Z" fill="#180E01"/>
<path d="M88.5246 117.448H90V118.92H88.5246V117.448Z" fill="#180E01"/>
<path d="M0 127.264H1.47541V128.736H0V127.264Z" fill="#180E01"/>
<path d="M9.83607 127.264H11.3115V128.736H9.83607V127.264Z" fill="#180E01"/>
<path d="M19.6721 127.264H21.1475V128.736H19.6721V127.264Z" fill="#180E01"/>
<path d="M29.5082 127.264H30.9836V128.736H29.5082V127.264Z" fill="#180E01"/>
<path d="M39.3443 127.264H40.8197V128.736H39.3443V127.264Z" fill="#180E01"/>
<path d="M49.1803 127.264H50.6557V128.736H49.1803V127.264Z" fill="#180E01"/>
<path d="M59.0164 127.264H60.4918V128.736H59.0164V127.264Z" fill="#180E01"/>
<path d="M68.8525 127.264H70.3279V128.736H68.8525V127.264Z" fill="#180E01"/>
<path d="M78.6885 127.264H80.1639V128.736H78.6885V127.264Z" fill="#180E01"/>
<path d="M88.5246 127.264H90V128.736H88.5246V127.264Z" fill="#180E01"/>
<path d="M0 137.08H1.47541V138.552H0V137.08Z" fill="#180E01"/>
<path d="M9.83607 137.08H11.3115V138.552H9.83607V137.08Z" fill="#180E01"/>
<path d="M19.6721 137.08H21.1475V138.552H19.6721V137.08Z" fill="#180E01"/>
<path d="M29.5082 137.08H30.9836V138.552H29.5082V137.08Z" fill="#180E01"/>
<path d="M39.3443 137.08H40.8197V138.552H39.3443V137.08Z" fill="#180E01"/>
<path d="M49.1803 137.08H50.6557V138.552H49.1803V137.08Z" fill="#180E01"/>
<path d="M59.0164 137.08H60.4918V138.552H59.0164V137.08Z" fill="#180E01"/>
<path d="M68.8525 137.08H70.3279V138.552H68.8525V137.08Z" fill="#180E01"/>
<path d="M78.6885 137.08H80.1639V138.552H78.6885V137.08Z" fill="#180E01"/>
<path d="M88.5246 137.08H90V138.552H88.5246V137.08Z" fill="#180E01"/>
<path d="M0 146.896H1.47541V148.368H0V146.896Z" fill="#180E01"/>
<path d="M9.83607 146.896H11.3115V148.368H9.83607V146.896Z" fill="#180E01"/>
<path d="M19.6721 146.896H21.1475V148.368H19.6721V146.896Z" fill="#180E01"/>
<path d="M29.5082 146.896H30.9836V148.368H29.5082V146.896Z" fill="#180E01"/>
<path d="M39.3443 146.896H40.8197V148.368H39.3443V146.896Z" fill="#180E01"/>
<path d="M49.1803 146.896H50.6557V148.368H49.1803V146.896Z" fill="#180E01"/>
<path d="M59.0164 146.896H60.4918V148.368H59.0164V146.896Z" fill="#180E01"/>
<path d="M68.8525 146.896H70.3279V148.368H68.8525V146.896Z" fill="#180E01"/>
<path d="M78.6885 146.896H80.1639V148.368H78.6885V146.896Z" fill="#180E01"/>
<path d="M88.5246 146.896H90V148.368H88.5246V146.896Z" fill="#180E01"/>
<path d="M0 156.712H1.47541V158.184H0V156.712Z" fill="#180E01"/>
<path d="M9.83607 156.712H11.3115V158.184H9.83607V156.712Z" fill="#180E01"/>
<path d="M19.6721 156.712H21.1475V158.184H19.6721V156.712Z" fill="#180E01"/>
<path d="M29.5082 156.712H30.9836V158.184H29.5082V156.712Z" fill="#180E01"/>
<path d="M39.3443 156.712H40.8197V158.184H39.3443V156.712Z" fill="#180E01"/>
<path d="M49.1803 156.712H50.6557V158.184H49.1803V156.712Z" fill="#180E01"/>
<path d="M59.0164 156.712H60.4918V158.184H59.0164V156.712Z" fill="#180E01"/>
<path d="M68.8525 156.712H70.3279V158.184H68.8525V156.712Z" fill="#180E01"/>
<path d="M78.6885 156.712H80.1639V158.184H78.6885V156.712Z" fill="#180E01"/>
<path d="M88.5246 156.712H90V158.184H88.5246V156.712Z" fill="#180E01"/>
<path d="M0 166.528H1.47541V168H0V166.528Z" fill="#180E01"/>
<path d="M9.83607 166.528H11.3115V168H9.83607V166.528Z" fill="#180E01"/>
<path d="M19.6721 166.528H21.1475V168H19.6721V166.528Z" fill="#180E01"/>
<path d="M29.5082 166.528H30.9836V168H29.5082V166.528Z" fill="#180E01"/>
<path d="M39.3443 166.528H40.8197V168H39.3443V166.528Z" fill="#180E01"/>
<path d="M49.1803 166.528H50.6557V168H49.1803V166.528Z" fill="#180E01"/>
<path d="M59.0164 166.528H60.4918V168H59.0164V166.528Z" fill="#180E01"/>
<path d="M68.8525 166.528H70.3279V168H68.8525V166.528Z" fill="#180E01"/>
<path d="M78.6885 166.528H80.1639V168H78.6885V166.528Z" fill="#180E01"/>
<path d="M88.5246 166.528H90V168H88.5246V166.528Z" fill="#180E01"/>
<path d="M0 0H1.47541V1.47239H0V0Z" fill="#180E01"/>
<path d="M9.83607 0H11.3115V1.47239H9.83607V0Z" fill="#180E01"/>
<path d="M19.6721 0H21.1475V1.47239H19.6721V0Z" fill="#180E01"/>
<path d="M29.5082 0H30.9836V1.47239H29.5082V0Z" fill="#180E01"/>
<path d="M39.3443 0H40.8197V1.47239H39.3443V0Z" fill="#180E01"/>
<path d="M49.1803 0H50.6557V1.47239H49.1803V0Z" fill="#180E01"/>
<path d="M59.0164 0H60.4918V1.47239H59.0164V0Z" fill="#180E01"/>
<path d="M68.8525 0H70.3279V1.47239H68.8525V0Z" fill="#180E01"/>
<path d="M78.6885 0H80.1639V1.47239H78.6885V0Z" fill="#180E01"/>
<path d="M88.5246 0H90V1.47239H88.5246V0Z" fill="#180E01"/>
<path d="M0 9.81595H1.47541V11.2883H0V9.81595Z" fill="#180E01"/>
<path d="M9.83607 9.81597H11.3115V11.2884H9.83607V9.81597Z" fill="#180E01"/>
<path d="M19.6721 9.81597H21.1475V11.2884H19.6721V9.81597Z" fill="#180E01"/>
<path d="M29.5082 9.81597H30.9836V11.2884H29.5082V9.81597Z" fill="#180E01"/>
<path d="M39.3443 9.81597H40.8197V11.2884H39.3443V9.81597Z" fill="#180E01"/>
<path d="M49.1803 9.81597H50.6557V11.2884H49.1803V9.81597Z" fill="#180E01"/>
<path d="M59.0164 9.81597H60.4918V11.2884H59.0164V9.81597Z" fill="#180E01"/>
<path d="M68.8525 9.81597H70.3279V11.2884H68.8525V9.81597Z" fill="#180E01"/>
<path d="M78.6885 9.81597H80.1639V11.2884H78.6885V9.81597Z" fill="#180E01"/>
<path d="M88.5246 9.81597H90V11.2884H88.5246V9.81597Z" fill="#180E01"/>
<path d="M0 19.6319H1.47541V21.1043H0V19.6319Z" fill="#180E01"/>
<path d="M9.83607 19.6319H11.3115V21.1043H9.83607V19.6319Z" fill="#180E01"/>
<path d="M19.6721 19.6319H21.1475V21.1043H19.6721V19.6319Z" fill="#180E01"/>
<path d="M29.5082 19.6319H30.9836V21.1043H29.5082V19.6319Z" fill="#180E01"/>
<path d="M39.3443 19.6319H40.8197V21.1043H39.3443V19.6319Z" fill="#180E01"/>
<path d="M49.1803 19.6319H50.6557V21.1043H49.1803V19.6319Z" fill="#180E01"/>
<path d="M59.0164 19.6319H60.4918V21.1043H59.0164V19.6319Z" fill="#180E01"/>
<path d="M68.8525 19.6319H70.3279V21.1043H68.8525V19.6319Z" fill="#180E01"/>
<path d="M78.6885 19.6319H80.1639V21.1043H78.6885V19.6319Z" fill="#180E01"/>
<path d="M88.5246 19.6319H90V21.1043H88.5246V19.6319Z" fill="#180E01"/>
<path d="M0 29.4478H1.47541V30.9202H0V29.4478Z" fill="#180E01"/>
<path d="M9.83607 29.4478H11.3115V30.9202H9.83607V29.4478Z" fill="#180E01"/>
<path d="M19.6721 29.4478H21.1475V30.9202H19.6721V29.4478Z" fill="#180E01"/>
<path d="M29.5082 29.4478H30.9836V30.9202H29.5082V29.4478Z" fill="#180E01"/>
<path d="M39.3443 29.4478H40.8197V30.9202H39.3443V29.4478Z" fill="#180E01"/>
<path d="M49.1803 29.4478H50.6557V30.9202H49.1803V29.4478Z" fill="#180E01"/>
<path d="M59.0164 29.4478H60.4918V30.9202H59.0164V29.4478Z" fill="#180E01"/>
<path d="M68.8525 29.4478H70.3279V30.9202H68.8525V29.4478Z" fill="#180E01"/>
<path d="M78.6885 29.4478H80.1639V30.9202H78.6885V29.4478Z" fill="#180E01"/>
<path d="M88.5246 29.4478H90V30.9202H88.5246V29.4478Z" fill="#180E01"/>
<path d="M0 39.2638H1.47541V40.7362H0V39.2638Z" fill="#180E01"/>
<path d="M9.83607 39.2637H11.3115V40.7361H9.83607V39.2637Z" fill="#180E01"/>
<path d="M19.6721 39.2637H21.1475V40.7361H19.6721V39.2637Z" fill="#180E01"/>
<path d="M29.5082 39.2637H30.9836V40.7361H29.5082V39.2637Z" fill="#180E01"/>
<path d="M39.3443 39.2637H40.8197V40.7361H39.3443V39.2637Z" fill="#180E01"/>
<path d="M49.1803 39.2637H50.6557V40.7361H49.1803V39.2637Z" fill="#180E01"/>
<path d="M59.0164 39.2637H60.4918V40.7361H59.0164V39.2637Z" fill="#180E01"/>
<path d="M68.8525 39.2637H70.3279V40.7361H68.8525V39.2637Z" fill="#180E01"/>
<path d="M78.6885 39.2637H80.1639V40.7361H78.6885V39.2637Z" fill="#180E01"/>
<path d="M88.5246 39.2637H90V40.7361H88.5246V39.2637Z" fill="#180E01"/>
<path d="M0 49.0798H1.47541V50.5521H0V49.0798Z" fill="#180E01"/>
<path d="M9.83607 49.0798H11.3115V50.5522H9.83607V49.0798Z" fill="#180E01"/>
<path d="M19.6721 49.0798H21.1475V50.5522H19.6721V49.0798Z" fill="#180E01"/>
<path d="M29.5082 49.0798H30.9836V50.5522H29.5082V49.0798Z" fill="#180E01"/>
<path d="M39.3443 49.0798H40.8197V50.5522H39.3443V49.0798Z" fill="#180E01"/>
<path d="M49.1803 49.0798H50.6557V50.5522H49.1803V49.0798Z" fill="#180E01"/>
<path d="M59.0164 49.0798H60.4918V50.5522H59.0164V49.0798Z" fill="#180E01"/>
<path d="M68.8525 49.0798H70.3279V50.5522H68.8525V49.0798Z" fill="#180E01"/>
<path d="M78.6885 49.0798H80.1639V50.5522H78.6885V49.0798Z" fill="#180E01"/>
<path d="M88.5246 49.0798H90V50.5522H88.5246V49.0798Z" fill="#180E01"/>
<path d="M0 58.8957H1.47541V60.3681H0V58.8957Z" fill="#180E01"/>
<path d="M9.83607 58.8957H11.3115V60.3681H9.83607V58.8957Z" fill="#180E01"/>
<path d="M19.6721 58.8957H21.1475V60.3681H19.6721V58.8957Z" fill="#180E01"/>
<path d="M29.5082 58.8957H30.9836V60.3681H29.5082V58.8957Z" fill="#180E01"/>
<path d="M39.3443 58.8957H40.8197V60.3681H39.3443V58.8957Z" fill="#180E01"/>
<path d="M49.1803 58.8957H50.6557V60.3681H49.1803V58.8957Z" fill="#180E01"/>
<path d="M59.0164 58.8957H60.4918V60.3681H59.0164V58.8957Z" fill="#180E01"/>
<path d="M68.8525 58.8957H70.3279V60.3681H68.8525V58.8957Z" fill="#180E01"/>
<path d="M78.6885 58.8957H80.1639V60.3681H78.6885V58.8957Z" fill="#180E01"/>
<path d="M88.5246 58.8957H90V60.3681H88.5246V58.8957Z" fill="#180E01"/>
<path d="M0 68.7116H1.47541V70.184H0V68.7116Z" fill="#180E01"/>
<path d="M9.83607 68.7117H11.3115V70.1841H9.83607V68.7117Z" fill="#180E01"/>
<path d="M19.6721 68.7117H21.1475V70.1841H19.6721V68.7117Z" fill="#180E01"/>
<path d="M29.5082 68.7117H30.9836V70.1841H29.5082V68.7117Z" fill="#180E01"/>
<path d="M39.3443 68.7117H40.8197V70.1841H39.3443V68.7117Z" fill="#180E01"/>
<path d="M49.1803 68.7117H50.6557V70.1841H49.1803V68.7117Z" fill="#180E01"/>
<path d="M59.0164 68.7117H60.4918V70.1841H59.0164V68.7117Z" fill="#180E01"/>
<path d="M68.8525 68.7117H70.3279V70.1841H68.8525V68.7117Z" fill="#180E01"/>
<path d="M78.6885 68.7117H80.1639V70.1841H78.6885V68.7117Z" fill="#180E01"/>
<path d="M88.5246 68.7117H90V70.1841H88.5246V68.7117Z" fill="#180E01"/>
<path d="M0 78.5276H1.47541V80H0V78.5276Z" fill="#180E01"/>
<path d="M9.83607 78.5276H11.3115V80H9.83607V78.5276Z" fill="#180E01"/>
<path d="M19.6721 78.5276H21.1475V80H19.6721V78.5276Z" fill="#180E01"/>
<path d="M29.5082 78.5276H30.9836V80H29.5082V78.5276Z" fill="#180E01"/>
<path d="M39.3443 78.5276H40.8197V80H39.3443V78.5276Z" fill="#180E01"/>
<path d="M49.1803 78.5276H50.6557V80H49.1803V78.5276Z" fill="#180E01"/>
<path d="M59.0164 78.5276H60.4918V80H59.0164V78.5276Z" fill="#180E01"/>
<path d="M68.8525 78.5276H70.3279V80H68.8525V78.5276Z" fill="#180E01"/>
<path d="M78.6885 78.5276H80.1639V80H78.6885V78.5276Z" fill="#180E01"/>
<path d="M88.5246 78.5276H90V80H88.5246V78.5276Z" fill="#180E01"/>
<path d="M98 0H99.4754V1.47239H98V0Z" fill="#180E01"/>
<path d="M107.836 0H109.311V1.47239H107.836V0Z" fill="#180E01"/>
<path d="M117.672 0H119.148V1.47239H117.672V0Z" fill="#180E01"/>
<path d="M127.508 0H128.984V1.47239H127.508V0Z" fill="#180E01"/>
<path d="M137.344 0H138.82V1.47239H137.344V0Z" fill="#180E01"/>
<path d="M147.18 0H148.656V1.47239H147.18V0Z" fill="#180E01"/>
<path d="M157.016 0H158.492V1.47239H157.016V0Z" fill="#180E01"/>
<path d="M166.852 0H168.328V1.47239H166.852V0Z" fill="#180E01"/>
<path d="M176.689 0H178.164V1.47239H176.689V0Z" fill="#180E01"/>
<path d="M186.525 0H188V1.47239H186.525V0Z" fill="#180E01"/>
<path d="M98 9.81595H99.4754V11.2883H98V9.81595Z" fill="#180E01"/>
<path d="M107.836 9.81597H109.311V11.2884H107.836V9.81597Z" fill="#180E01"/>
<path d="M117.672 9.81597H119.148V11.2884H117.672V9.81597Z" fill="#180E01"/>
<path d="M127.508 9.81597H128.984V11.2884H127.508V9.81597Z" fill="#180E01"/>
<path d="M137.344 9.81597H138.82V11.2884H137.344V9.81597Z" fill="#180E01"/>
<path d="M147.18 9.81597H148.656V11.2884H147.18V9.81597Z" fill="#180E01"/>
<path d="M157.016 9.81597H158.492V11.2884H157.016V9.81597Z" fill="#180E01"/>
<path d="M166.852 9.81597H168.328V11.2884H166.852V9.81597Z" fill="#180E01"/>
<path d="M176.689 9.81597H178.164V11.2884H176.689V9.81597Z" fill="#180E01"/>
<path d="M186.525 9.81597H188V11.2884H186.525V9.81597Z" fill="#180E01"/>
<path d="M98 19.6319H99.4754V21.1043H98V19.6319Z" fill="#180E01"/>
<path d="M107.836 19.6319H109.311V21.1043H107.836V19.6319Z" fill="#180E01"/>
<path d="M117.672 19.6319H119.148V21.1043H117.672V19.6319Z" fill="#180E01"/>
<path d="M127.508 19.6319H128.984V21.1043H127.508V19.6319Z" fill="#180E01"/>
<path d="M137.344 19.6319H138.82V21.1043H137.344V19.6319Z" fill="#180E01"/>
<path d="M147.18 19.6319H148.656V21.1043H147.18V19.6319Z" fill="#180E01"/>
<path d="M157.016 19.6319H158.492V21.1043H157.016V19.6319Z" fill="#180E01"/>
<path d="M166.852 19.6319H168.328V21.1043H166.852V19.6319Z" fill="#180E01"/>
<path d="M176.689 19.6319H178.164V21.1043H176.689V19.6319Z" fill="#180E01"/>
<path d="M186.525 19.6319H188V21.1043H186.525V19.6319Z" fill="#180E01"/>
<path d="M98 29.4478H99.4754V30.9202H98V29.4478Z" fill="#180E01"/>
<path d="M107.836 29.4478H109.311V30.9202H107.836V29.4478Z" fill="#180E01"/>
<path d="M117.672 29.4478H119.148V30.9202H117.672V29.4478Z" fill="#180E01"/>
<path d="M127.508 29.4478H128.984V30.9202H127.508V29.4478Z" fill="#180E01"/>
<path d="M137.344 29.4478H138.82V30.9202H137.344V29.4478Z" fill="#180E01"/>
<path d="M147.18 29.4478H148.656V30.9202H147.18V29.4478Z" fill="#180E01"/>
<path d="M157.016 29.4478H158.492V30.9202H157.016V29.4478Z" fill="#180E01"/>
<path d="M166.852 29.4478H168.328V30.9202H166.852V29.4478Z" fill="#180E01"/>
<path d="M176.689 29.4478H178.164V30.9202H176.689V29.4478Z" fill="#180E01"/>
<path d="M186.525 29.4478H188V30.9202H186.525V29.4478Z" fill="#180E01"/>
<path d="M98 39.2638H99.4754V40.7362H98V39.2638Z" fill="#180E01"/>
<path d="M107.836 39.2637H109.311V40.7361H107.836V39.2637Z" fill="#180E01"/>
<path d="M117.672 39.2637H119.148V40.7361H117.672V39.2637Z" fill="#180E01"/>
<path d="M127.508 39.2637H128.984V40.7361H127.508V39.2637Z" fill="#180E01"/>
<path d="M137.344 39.2637H138.82V40.7361H137.344V39.2637Z" fill="#180E01"/>
<path d="M147.18 39.2637H148.656V40.7361H147.18V39.2637Z" fill="#180E01"/>
<path d="M157.016 39.2637H158.492V40.7361H157.016V39.2637Z" fill="#180E01"/>
<path d="M166.852 39.2637H168.328V40.7361H166.852V39.2637Z" fill="#180E01"/>
<path d="M176.689 39.2637H178.164V40.7361H176.689V39.2637Z" fill="#180E01"/>
<path d="M186.525 39.2637H188V40.7361H186.525V39.2637Z" fill="#180E01"/>
<path d="M98 49.0798H99.4754V50.5521H98V49.0798Z" fill="#180E01"/>
<path d="M107.836 49.0798H109.311V50.5522H107.836V49.0798Z" fill="#180E01"/>
<path d="M117.672 49.0798H119.148V50.5522H117.672V49.0798Z" fill="#180E01"/>
<path d="M127.508 49.0798H128.984V50.5522H127.508V49.0798Z" fill="#180E01"/>
<path d="M137.344 49.0798H138.82V50.5522H137.344V49.0798Z" fill="#180E01"/>
<path d="M147.18 49.0798H148.656V50.5522H147.18V49.0798Z" fill="#180E01"/>
<path d="M157.016 49.0798H158.492V50.5522H157.016V49.0798Z" fill="#180E01"/>
<path d="M166.852 49.0798H168.328V50.5522H166.852V49.0798Z" fill="#180E01"/>
<path d="M176.689 49.0798H178.164V50.5522H176.689V49.0798Z" fill="#180E01"/>
<path d="M186.525 49.0798H188V50.5522H186.525V49.0798Z" fill="#180E01"/>
<path d="M98 58.8957H99.4754V60.3681H98V58.8957Z" fill="#180E01"/>
<path d="M107.836 58.8957H109.311V60.3681H107.836V58.8957Z" fill="#180E01"/>
<path d="M117.672 58.8957H119.148V60.3681H117.672V58.8957Z" fill="#180E01"/>
<path d="M127.508 58.8957H128.984V60.3681H127.508V58.8957Z" fill="#180E01"/>
<path d="M137.344 58.8957H138.82V60.3681H137.344V58.8957Z" fill="#180E01"/>
<path d="M147.18 58.8957H148.656V60.3681H147.18V58.8957Z" fill="#180E01"/>
<path d="M157.016 58.8957H158.492V60.3681H157.016V58.8957Z" fill="#180E01"/>
<path d="M166.852 58.8957H168.328V60.3681H166.852V58.8957Z" fill="#180E01"/>
<path d="M176.689 58.8957H178.164V60.3681H176.689V58.8957Z" fill="#180E01"/>
<path d="M186.525 58.8957H188V60.3681H186.525V58.8957Z" fill="#180E01"/>
<path d="M98 68.7116H99.4754V70.184H98V68.7116Z" fill="#180E01"/>
<path d="M107.836 68.7117H109.311V70.1841H107.836V68.7117Z" fill="#180E01"/>
<path d="M117.672 68.7117H119.148V70.1841H117.672V68.7117Z" fill="#180E01"/>
<path d="M127.508 68.7117H128.984V70.1841H127.508V68.7117Z" fill="#180E01"/>
<path d="M137.344 68.7117H138.82V70.1841H137.344V68.7117Z" fill="#180E01"/>
<path d="M147.18 68.7117H148.656V70.1841H147.18V68.7117Z" fill="#180E01"/>
<path d="M157.016 68.7117H158.492V70.1841H157.016V68.7117Z" fill="#180E01"/>
<path d="M166.852 68.7117H168.328V70.1841H166.852V68.7117Z" fill="#180E01"/>
<path d="M176.689 68.7117H178.164V70.1841H176.689V68.7117Z" fill="#180E01"/>
<path d="M186.525 68.7117H188V70.1841H186.525V68.7117Z" fill="#180E01"/>
<path d="M98 78.5276H99.4754V80H98V78.5276Z" fill="#180E01"/>
<path d="M107.836 78.5276H109.311V80H107.836V78.5276Z" fill="#180E01"/>
<path d="M117.672 78.5276H119.148V80H117.672V78.5276Z" fill="#180E01"/>
<path d="M127.508 78.5276H128.984V80H127.508V78.5276Z" fill="#180E01"/>
<path d="M137.344 78.5276H138.82V80H137.344V78.5276Z" fill="#180E01"/>
<path d="M147.18 78.5276H148.656V80H147.18V78.5276Z" fill="#180E01"/>
<path d="M157.016 78.5276H158.492V80H157.016V78.5276Z" fill="#180E01"/>
<path d="M166.852 78.5276H168.328V80H166.852V78.5276Z" fill="#180E01"/>
<path d="M176.689 78.5276H178.164V80H176.689V78.5276Z" fill="#180E01"/>
<path d="M186.525 78.5276H188V80H186.525V78.5276Z" fill="#180E01"/>
<path d="M0 176H1.47541V177.472H0V176Z" fill="#180E01"/>
<path d="M9.83607 176H11.3115V177.472H9.83607V176Z" fill="#180E01"/>
<path d="M19.6721 176H21.1475V177.472H19.6721V176Z" fill="#180E01"/>
<path d="M29.5082 176H30.9836V177.472H29.5082V176Z" fill="#180E01"/>
<path d="M39.3443 176H40.8197V177.472H39.3443V176Z" fill="#180E01"/>
<path d="M49.1803 176H50.6557V177.472H49.1803V176Z" fill="#180E01"/>
<path d="M59.0164 176H60.4918V177.472H59.0164V176Z" fill="#180E01"/>
<path d="M68.8525 176H70.3279V177.472H68.8525V176Z" fill="#180E01"/>
<path d="M78.6885 176H80.1639V177.472H78.6885V176Z" fill="#180E01"/>
<path d="M88.5246 176H90V177.472H88.5246V176Z" fill="#180E01"/>
<path d="M0 185.816H1.47541V187.288H0V185.816Z" fill="#180E01"/>
<path d="M9.83607 185.816H11.3115V187.288H9.83607V185.816Z" fill="#180E01"/>
<path d="M19.6721 185.816H21.1475V187.288H19.6721V185.816Z" fill="#180E01"/>
<path d="M29.5082 185.816H30.9836V187.288H29.5082V185.816Z" fill="#180E01"/>
<path d="M39.3443 185.816H40.8197V187.288H39.3443V185.816Z" fill="#180E01"/>
<path d="M49.1803 185.816H50.6557V187.288H49.1803V185.816Z" fill="#180E01"/>
<path d="M59.0164 185.816H60.4918V187.288H59.0164V185.816Z" fill="#180E01"/>
<path d="M68.8525 185.816H70.3279V187.288H68.8525V185.816Z" fill="#180E01"/>
<path d="M78.6885 185.816H80.1639V187.288H78.6885V185.816Z" fill="#180E01"/>
<path d="M88.5246 185.816H90V187.288H88.5246V185.816Z" fill="#180E01"/>
<path d="M0 195.632H1.47541V197.104H0V195.632Z" fill="#180E01"/>
<path d="M9.83607 195.632H11.3115V197.104H9.83607V195.632Z" fill="#180E01"/>
<path d="M19.6721 195.632H21.1475V197.104H19.6721V195.632Z" fill="#180E01"/>
<path d="M29.5082 195.632H30.9836V197.104H29.5082V195.632Z" fill="#180E01"/>
<path d="M39.3443 195.632H40.8197V197.104H39.3443V195.632Z" fill="#180E01"/>
<path d="M49.1803 195.632H50.6557V197.104H49.1803V195.632Z" fill="#180E01"/>
<path d="M59.0164 195.632H60.4918V197.104H59.0164V195.632Z" fill="#180E01"/>
<path d="M68.8525 195.632H70.3279V197.104H68.8525V195.632Z" fill="#180E01"/>
<path d="M78.6885 195.632H80.1639V197.104H78.6885V195.632Z" fill="#180E01"/>
<path d="M88.5246 195.632H90V197.104H88.5246V195.632Z" fill="#180E01"/>
<path d="M0 205.448H1.47541V206.92H0V205.448Z" fill="#180E01"/>
<path d="M9.83607 205.448H11.3115V206.92H9.83607V205.448Z" fill="#180E01"/>
<path d="M19.6721 205.448H21.1475V206.92H19.6721V205.448Z" fill="#180E01"/>
<path d="M29.5082 205.448H30.9836V206.92H29.5082V205.448Z" fill="#180E01"/>
<path d="M39.3443 205.448H40.8197V206.92H39.3443V205.448Z" fill="#180E01"/>
<path d="M49.1803 205.448H50.6557V206.92H49.1803V205.448Z" fill="#180E01"/>
<path d="M59.0164 205.448H60.4918V206.92H59.0164V205.448Z" fill="#180E01"/>
<path d="M68.8525 205.448H70.3279V206.92H68.8525V205.448Z" fill="#180E01"/>
<path d="M78.6885 205.448H80.1639V206.92H78.6885V205.448Z" fill="#180E01"/>
<path d="M88.5246 205.448H90V206.92H88.5246V205.448Z" fill="#180E01"/>
<path d="M0 215.264H1.47541V216.736H0V215.264Z" fill="#180E01"/>
<path d="M9.83607 215.264H11.3115V216.736H9.83607V215.264Z" fill="#180E01"/>
<path d="M19.6721 215.264H21.1475V216.736H19.6721V215.264Z" fill="#180E01"/>
<path d="M29.5082 215.264H30.9836V216.736H29.5082V215.264Z" fill="#180E01"/>
<path d="M39.3443 215.264H40.8197V216.736H39.3443V215.264Z" fill="#180E01"/>
<path d="M49.1803 215.264H50.6557V216.736H49.1803V215.264Z" fill="#180E01"/>
<path d="M59.0164 215.264H60.4918V216.736H59.0164V215.264Z" fill="#180E01"/>
<path d="M68.8525 215.264H70.3279V216.736H68.8525V215.264Z" fill="#180E01"/>
<path d="M78.6885 215.264H80.1639V216.736H78.6885V215.264Z" fill="#180E01"/>
<path d="M88.5246 215.264H90V216.736H88.5246V215.264Z" fill="#180E01"/>
<path d="M0 225.08H1.47541V226.552H0V225.08Z" fill="#180E01"/>
<path d="M9.83607 225.08H11.3115V226.552H9.83607V225.08Z" fill="#180E01"/>
<path d="M19.6721 225.08H21.1475V226.552H19.6721V225.08Z" fill="#180E01"/>
<path d="M29.5082 225.08H30.9836V226.552H29.5082V225.08Z" fill="#180E01"/>
<path d="M39.3443 225.08H40.8197V226.552H39.3443V225.08Z" fill="#180E01"/>
<path d="M49.1803 225.08H50.6557V226.552H49.1803V225.08Z" fill="#180E01"/>
<path d="M59.0164 225.08H60.4918V226.552H59.0164V225.08Z" fill="#180E01"/>
<path d="M68.8525 225.08H70.3279V226.552H68.8525V225.08Z" fill="#180E01"/>
<path d="M78.6885 225.08H80.1639V226.552H78.6885V225.08Z" fill="#180E01"/>
<path d="M88.5246 225.08H90V226.552H88.5246V225.08Z" fill="#180E01"/>
<path d="M0 234.896H1.47541V236.368H0V234.896Z" fill="#180E01"/>
<path d="M9.83607 234.896H11.3115V236.368H9.83607V234.896Z" fill="#180E01"/>
<path d="M19.6721 234.896H21.1475V236.368H19.6721V234.896Z" fill="#180E01"/>
<path d="M29.5082 234.896H30.9836V236.368H29.5082V234.896Z" fill="#180E01"/>
<path d="M39.3443 234.896H40.8197V236.368H39.3443V234.896Z" fill="#180E01"/>
<path d="M49.1803 234.896H50.6557V236.368H49.1803V234.896Z" fill="#180E01"/>
<path d="M59.0164 234.896H60.4918V236.368H59.0164V234.896Z" fill="#180E01"/>
<path d="M68.8525 234.896H70.3279V236.368H68.8525V234.896Z" fill="#180E01"/>
<path d="M78.6885 234.896H80.1639V236.368H78.6885V234.896Z" fill="#180E01"/>
<path d="M88.5246 234.896H90V236.368H88.5246V234.896Z" fill="#180E01"/>
<path d="M0 244.712H1.47541V246.184H0V244.712Z" fill="#180E01"/>
<path d="M9.83607 244.712H11.3115V246.184H9.83607V244.712Z" fill="#180E01"/>
<path d="M19.6721 244.712H21.1475V246.184H19.6721V244.712Z" fill="#180E01"/>
<path d="M29.5082 244.712H30.9836V246.184H29.5082V244.712Z" fill="#180E01"/>
<path d="M39.3443 244.712H40.8197V246.184H39.3443V244.712Z" fill="#180E01"/>
<path d="M49.1803 244.712H50.6557V246.184H49.1803V244.712Z" fill="#180E01"/>
<path d="M59.0164 244.712H60.4918V246.184H59.0164V244.712Z" fill="#180E01"/>
<path d="M68.8525 244.712H70.3279V246.184H68.8525V244.712Z" fill="#180E01"/>
<path d="M78.6885 244.712H80.1639V246.184H78.6885V244.712Z" fill="#180E01"/>
<path d="M88.5246 244.712H90V246.184H88.5246V244.712Z" fill="#180E01"/>
<path d="M0 254.528H1.47541V256H0V254.528Z" fill="#180E01"/>
<path d="M9.83607 254.528H11.3115V256H9.83607V254.528Z" fill="#180E01"/>
<path d="M19.6721 254.528H21.1475V256H19.6721V254.528Z" fill="#180E01"/>
<path d="M29.5082 254.528H30.9836V256H29.5082V254.528Z" fill="#180E01"/>
<path d="M39.3443 254.528H40.8197V256H39.3443V254.528Z" fill="#180E01"/>
<path d="M49.1803 254.528H50.6557V256H49.1803V254.528Z" fill="#180E01"/>
<path d="M59.0164 254.528H60.4918V256H59.0164V254.528Z" fill="#180E01"/>
<path d="M68.8525 254.528H70.3279V256H68.8525V254.528Z" fill="#180E01"/>
<path d="M78.6885 254.528H80.1639V256H78.6885V254.528Z" fill="#180E01"/>
<path d="M88.5246 254.528H90V256H88.5246V254.528Z" fill="#180E01"/>
</g>
</svg>
