<svg width="276" height="301" viewBox="0 0 276 301" fill="none" xmlns="http://www.w3.org/2000/svg">
<path fill-rule="evenodd" clip-rule="evenodd" d="M126.293 0.222635C150.804 -2.56149 169.44 21.5109 192.265 30.8654C219.26 41.9288 260.943 33.8539 273.076 60.3793C285.687 87.9511 254 116.304 244.516 145.1C238.098 164.587 230.37 182.672 226.184 202.756C219.703 233.857 238.927 276.927 213.167 295.529C188.62 313.254 155.484 282.933 126.293 274.888C104.611 268.913 83.5798 263.888 63.2752 254.219C41.4807 243.839 13.0778 238.184 3.08635 216.213C-7.00669 194.02 10.6276 169.292 13.6513 145.1C16.2521 124.293 9.60359 101.956 19.667 83.5577C29.791 65.0489 51.8187 57.9227 68.4427 44.93C87.9772 29.6624 101.655 3.02109 126.293 0.222635Z" fill="url(#paint0_linear)"/>
<defs>
<linearGradient id="paint0_linear" x1="138" y1="0" x2="156" y2="301" gradientUnits="userSpaceOnUse">
<stop offset="0.191983" stop-color="#FEF1CD"/>
<stop offset="1" stop-color="#FEF1CD" stop-opacity="0"/>
</linearGradient>
</defs>
</svg>
