<svg width="645" height="645" viewBox="0 0 645 645" fill="none" xmlns="http://www.w3.org/2000/svg">
<path d="M322.5 605C478.52 605 605 478.52 605 322.5C605 166.48 478.52 40 322.5 40C166.48 40 40 166.48 40 322.5C40 478.52 166.48 605 322.5 605Z" stroke="#FFF1CE" stroke-width="80"/>
<path d="M124.98 532.96C129.387 532.96 132.96 529.387 132.96 524.98C132.96 520.573 129.387 517 124.98 517C120.573 517 117 520.573 117 524.98C117 529.387 120.573 532.96 124.98 532.96Z" fill="#fff"/>
<path d="M546.11 458.22C548.38 458.22 550.22 456.38 550.22 454.11C550.22 451.84 548.38 450 546.11 450C543.84 450 542 451.84 542 454.11C542 456.38 543.84 458.22 546.11 458.22Z" fill="#fff"/>
<path d="M587 190C590.314 190 593 187.314 593 184C593 180.686 590.314 178 587 178C583.686 178 581 180.686 581 184C581 187.314 583.686 190 587 190Z" fill="#fff"/>
<path d="M254.49 28.98C255.865 28.98 256.98 27.8652 256.98 26.49C256.98 25.1148 255.865 24 254.49 24C253.115 24 252 25.1148 252 26.49C252 27.8652 253.115 28.98 254.49 28.98Z" fill="#fff"/>
<path d="M65 216C68.3137 216 71 213.314 71 210C71 206.686 68.3137 204 65 204C61.6863 204 59 206.686 59 210C59 213.314 61.6863 216 65 216Z" fill="#fff"/>
</svg>
