<svg width="42" height="33" viewBox="0 0 42 33" fill="none" xmlns="http://www.w3.org/2000/svg">
<path d="M18.0018 2.78164L16.517 0.5C6.23762 7.40196 0.526855 15.787 0.526855 22.6889C0.526855 29.3627 5.43811 32.5 9.60697 32.5C14.8609 32.5 18.5729 28.0508 18.5729 23.3734C18.5729 19.4376 16.0601 16.0722 12.6908 14.8173C11.7199 14.475 10.8062 14.1898 10.8062 12.5357C10.8062 10.4251 12.3481 7.28788 18.0018 2.78164ZM40.6735 2.78164L39.1887 0.5C29.0236 7.40196 23.1986 15.787 23.1986 22.6889C23.1986 29.3627 28.2241 32.5 32.3929 32.5C37.7039 32.5 41.473 28.0508 41.473 23.3734C41.473 19.4376 38.9032 16.0722 35.4196 14.8173C34.4488 14.475 33.5922 14.1898 33.5922 12.5357C33.5922 10.4251 35.1912 7.28788 40.6735 2.78164Z" fill="#ED8A0A"/>
</svg>
