<svg width="34" height="20" viewBox="0 0 34 20" fill="none" xmlns="http://www.w3.org/2000/svg">
<path fill-rule="evenodd" clip-rule="evenodd" d="M0.986694 9.99998C0.986694 9.73476 1.10966 9.48041 1.32853 9.29288C1.54741 9.10534 1.84427 8.99998 2.1538 8.99998H29.6812L22.3354 2.70798C22.1163 2.52021 21.9932 2.26553 21.9932 1.99998C21.9932 1.73443 22.1163 1.47975 22.3354 1.29198C22.5546 1.10421 22.8518 0.998718 23.1618 0.998718C23.4717 0.998718 23.7689 1.10421 23.9881 1.29198L33.3249 9.29198C33.4336 9.38487 33.5199 9.49522 33.5787 9.61671C33.6375 9.7382 33.6678 9.86845 33.6678 9.99998C33.6678 10.1315 33.6375 10.2618 33.5787 10.3832C33.5199 10.5047 33.4336 10.6151 33.3249 10.708L23.9881 18.708C23.7689 18.8958 23.4717 19.0012 23.1618 19.0012C22.8518 19.0012 22.5546 18.8958 22.3354 18.708C22.1163 18.5202 21.9932 18.2655 21.9932 18C21.9932 17.7344 22.1163 17.4798 22.3354 17.292L29.6812 11H2.1538C1.84427 11 1.54741 10.8946 1.32853 10.7071C1.10966 10.5196 0.986694 10.2652 0.986694 9.99998Z" fill="#061020"/>
</svg>
